<svg xmlns="http://www.w3.org/2000/svg" xmlns:xlink="http://www.w3.org/1999/xlink" viewBox="0 0 368.1 346.36"><defs><style>.cls-1{fill:url(#Áåçûìÿííûé_ãðàäèåíò_3175);}.cls-2{fill:url(#Áåçûìÿííûé_ãðàäèåíò_3175-2);}.cls-3{fill:url(#Áåçûìÿííûé_ãðàäèåíò_3175-3);}.cls-4{fill:url(#Áåçûìÿííûé_ãðàäèåíò_3175-4);}.cls-5{fill:url(#Áåçûìÿííûé_ãðàäèåíò_3175-5);}.cls-6{fill:url(#Áåçûìÿííûé_ãðàäèåíò_3175-6);}.cls-7{fill:url(#Áåçûìÿííûé_ãðàäèåíò_3175-7);}.cls-8{fill:url(#Áåçûìÿííûé_ãðàäèåíò_13);}.cls-9{fill:url(#Áåçûìÿííûé_ãðàäèåíò_3175-8);}.cls-10{fill:url(#Áåçûìÿííûé_ãðàäèåíò_3175-9);}.cls-11{fill:url(#Áåçûìÿííûé_ãðàäèåíò_3175-10);}.cls-12{fill:url(#Áåçûìÿííûé_ãðàäèåíò_3175-11);}.cls-13{fill:url(#Áåçûìÿííûé_ãðàäèåíò_3175-12);}.cls-14{fill:url(#Áåçûìÿííûé_ãðàäèåíò_3175-13);}.cls-15{fill:url(#Áåçûìÿííûé_ãðàäèåíò_3175-14);}.cls-16{fill:url(#Áåçûìÿííûé_ãðàäèåíò_3175-15);}.cls-17{fill:url(#Áåçûìÿííûé_ãðàäèåíò_13-2);}.cls-18{fill:url(#Áåçûìÿííûé_ãðàäèåíò_3175-16);}.cls-19{fill:url(#Áåçûìÿííûé_ãðàäèåíò_3175-17);}.cls-20{fill:url(#Áåçûìÿííûé_ãðàäèåíò_3175-18);}.cls-21{fill:url(#Áåçûìÿííûé_ãðàäèåíò_3175-19);}.cls-22{fill:url(#Áåçûìÿííûé_ãðàäèåíò_13-3);}.cls-23{fill:url(#Áåçûìÿííûé_ãðàäèåíò_3175-20);}.cls-24{fill:url(#Áåçûìÿííûé_ãðàäèåíò_3175-21);}.cls-25{fill:url(#Áåçûìÿííûé_ãðàäèåíò_3175-22);}.cls-26{fill:url(#Áåçûìÿííûé_ãðàäèåíò_3175-23);}.cls-27{fill:url(#Áåçûìÿííûé_ãðàäèåíò_3175-24);}.cls-28{fill:url(#Áåçûìÿííûé_ãðàäèåíò_3175-25);}.cls-29{fill:url(#Áåçûìÿííûé_ãðàäèåíò_3175-26);}.cls-30{fill:url(#Áåçûìÿííûé_ãðàäèåíò_3175-27);}.cls-31{fill:url(#Áåçûìÿííûé_ãðàäèåíò_3175-28);}.cls-32{fill:url(#Áåçûìÿííûé_ãðàäèåíò_13-4);}.cls-33{fill:url(#Áåçûìÿííûé_ãðàäèåíò_3175-29);}.cls-34{fill:url(#Áåçûìÿííûé_ãðàäèåíò_3175-30);}.cls-35{fill:url(#Áåçûìÿííûé_ãðàäèåíò_3175-31);}.cls-36{fill:url(#Áåçûìÿííûé_ãðàäèåíò_3175-32);}.cls-37{fill:url(#Áåçûìÿííûé_ãðàäèåíò_3175-33);}.cls-38{fill:url(#Áåçûìÿííûé_ãðàäèåíò_3175-34);}.cls-39{fill:url(#Áåçûìÿííûé_ãðàäèåíò_3175-35);}.cls-40{fill:url(#Áåçûìÿííûé_ãðàäèåíò_3175-36);}.cls-41{fill:url(#Áåçûìÿííûé_ãðàäèåíò_3175-37);}.cls-42{fill:url(#Áåçûìÿííûé_ãðàäèåíò_3175-38);}.cls-43{fill:url(#Áåçûìÿííûé_ãðàäèåíò_3175-39);}.cls-44{fill:url(#Áåçûìÿííûé_ãðàäèåíò_3175-40);}.cls-45{fill:url(#Áåçûìÿííûé_ãðàäèåíò_3175-41);}.cls-46{fill:url(#Áåçûìÿííûé_ãðàäèåíò_3175-42);}.cls-47{fill:url(#Áåçûìÿííûé_ãðàäèåíò_3175-43);}.cls-48{fill:url(#Áåçûìÿííûé_ãðàäèåíò_3175-44);}.cls-49{fill:url(#Áåçûìÿííûé_ãðàäèåíò_13-5);}.cls-50{fill:url(#Áåçûìÿííûé_ãðàäèåíò_3175-45);}.cls-51{fill:url(#Áåçûìÿííûé_ãðàäèåíò_13-6);}.cls-52{fill:url(#Áåçûìÿííûé_ãðàäèåíò_3175-46);}.cls-53{fill:url(#Áåçûìÿííûé_ãðàäèåíò_3175-47);}.cls-54{fill:url(#Áåçûìÿííûé_ãðàäèåíò_3175-48);}.cls-55{fill:url(#Áåçûìÿííûé_ãðàäèåíò_3175-49);}.cls-56{fill:url(#Áåçûìÿííûé_ãðàäèåíò_13-7);}.cls-57{fill:url(#Áåçûìÿííûé_ãðàäèåíò_3175-50);}.cls-58{fill:url(#Áåçûìÿííûé_ãðàäèåíò_13-8);}.cls-59{fill:url(#Áåçûìÿííûé_ãðàäèåíò_3175-51);}.cls-60{fill:url(#Áåçûìÿííûé_ãðàäèåíò_13-9);}.cls-61{fill:url(#Áåçûìÿííûé_ãðàäèåíò_3175-52);}.cls-62{fill:url(#Áåçûìÿííûé_ãðàäèåíò_3175-53);}.cls-63{fill:url(#Áåçûìÿííûé_ãðàäèåíò_3175-54);}.cls-64{fill:#161d2e;}.cls-65{fill:url(#Áåçûìÿííûé_ãðàäèåíò_414);}.cls-66{fill:url(#Áåçûìÿííûé_ãðàäèåíò_414-2);}.cls-67{fill:#b1a0af;}</style><linearGradient id="Áåçûìÿííûé_ãðàäèåíò_3175" x1="160.09" y1="65.03" x2="175.92" y2="158.47" gradientTransform="translate(-67.81 28.46) rotate(-11.65)" gradientUnits="userSpaceOnUse"><stop offset="0" stop-color="#6e6066"/><stop offset="0.17" stop-color="#61555e"/><stop offset="0.71" stop-color="#3e3548"/><stop offset="1" stop-color="#302940"/></linearGradient><linearGradient id="Áåçûìÿííûé_ãðàäèåíò_3175-2" x1="282.85" y1="108.83" x2="285.92" y2="264.57" gradientTransform="matrix(1, 0, 0, 1, 0, 0)" xlink:href="#Áåçûìÿííûé_ãðàäèåíò_3175"/><linearGradient id="Áåçûìÿííûé_ãðàäèåíò_3175-3" x1="273.19" y1="172.86" x2="320.14" y2="296.8" gradientTransform="matrix(1, 0, 0, 1, 0, 0)" xlink:href="#Áåçûìÿííûé_ãðàäèåíò_3175"/><linearGradient id="Áåçûìÿííûé_ãðàäèåíò_3175-4" x1="287.52" y1="200.32" x2="299.43" y2="251.21" gradientTransform="matrix(1, 0, 0, 1, 0, 0)" xlink:href="#Áåçûìÿííûé_ãðàäèåíò_3175"/><linearGradient id="Áåçûìÿííûé_ãðàäèåíò_3175-5" x1="267.94" y1="164.18" x2="275" y2="194.38" gradientTransform="matrix(1, 0, 0, 1, 0, 0)" xlink:href="#Áåçûìÿííûé_ãðàäèåíò_3175"/><linearGradient id="Áåçûìÿííûé_ãðàäèåíò_3175-6" x1="260.3" y1="141.52" x2="271.79" y2="190.65" gradientTransform="matrix(1, 0, 0, 1, 0, 0)" xlink:href="#Áåçûìÿííûé_ãðàäèåíò_3175"/><linearGradient id="Áåçûìÿííûé_ãðàäèåíò_3175-7" x1="227.49" y1="-11.17" x2="180" y2="212.49" gradientTransform="matrix(1, 0, 0, 1, 0, 0)" xlink:href="#Áåçûìÿííûé_ãðàäèåíò_3175"/><linearGradient id="Áåçûìÿííûé_ãðàäèåíò_13" x1="273.59" y1="154.4" x2="267.23" y2="254.22" gradientUnits="userSpaceOnUse"><stop offset="0" stop-color="#5b5156"/><stop offset="1" stop-color="#2b2536"/></linearGradient><linearGradient id="Áåçûìÿííûé_ãðàäèåíò_3175-8" x1="258.81" y1="167.41" x2="282.75" y2="258.76" gradientTransform="matrix(1, 0, 0, 1, 0, 0)" xlink:href="#Áåçûìÿííûé_ãðàäèåíò_3175"/><linearGradient id="Áåçûìÿííûé_ãðàäèåíò_3175-9" x1="265.08" y1="226.45" x2="264.89" y2="228.37" gradientTransform="matrix(1, 0, 0, 1, 0, 0)" xlink:href="#Áåçûìÿííûé_ãðàäèåíò_3175"/><linearGradient id="Áåçûìÿííûé_ãðàäèåíò_3175-10" x1="273.66" y1="221.22" x2="272.67" y2="231.19" gradientTransform="matrix(1, 0, 0, 1, 0, 0)" xlink:href="#Áåçûìÿííûé_ãðàäèåíò_3175"/><linearGradient id="Áåçûìÿííûé_ãðàäèåíò_3175-11" x1="262.01" y1="204.05" x2="259.67" y2="227.51" gradientTransform="matrix(1, 0, 0, 1, 0, 0)" xlink:href="#Áåçûìÿííûé_ãðàäèåíò_3175"/><linearGradient id="Áåçûìÿííûé_ãðàäèåíò_3175-12" x1="249.17" y1="178.62" x2="247.42" y2="196.22" gradientTransform="matrix(1, 0, 0, 1, 0, 0)" xlink:href="#Áåçûìÿííûé_ãðàäèåíò_3175"/><linearGradient id="Áåçûìÿííûé_ãðàäèåíò_3175-13" x1="184.17" y1="49.58" x2="192.46" y2="237.65" gradientTransform="matrix(1, 0, 0, 1, 0, 0)" xlink:href="#Áåçûìÿííûé_ãðàäèåíò_3175"/><linearGradient id="Áåçûìÿííûé_ãðàäèåíò_3175-14" x1="181.22" y1="151.89" x2="184.06" y2="276.62" gradientTransform="matrix(1, 0, 0, 1, 0, 0)" xlink:href="#Áåçûìÿííûé_ãðàäèåíò_3175"/><linearGradient id="Áåçûìÿííûé_ãðàäèåíò_3175-15" x1="244.73" y1="66.18" x2="221.75" y2="240.81" gradientTransform="matrix(1, 0, 0, 1, 0, 0)" xlink:href="#Áåçûìÿííûé_ãðàäèåíò_3175"/><linearGradient id="Áåçûìÿííûé_ãðàäèåíò_13-2" x1="94.54" y1="157.33" x2="63.39" y2="258.44" xlink:href="#Áåçûìÿííûé_ãðàäèåíò_13"/><linearGradient id="Áåçûìÿííûé_ãðàäèåíò_3175-16" x1="173.89" y1="132.52" x2="183.08" y2="354.64" gradientTransform="matrix(1, 0, 0, 1, 0, 0)" xlink:href="#Áåçûìÿííûé_ãðàäèåíò_3175"/><linearGradient id="Áåçûìÿííûé_ãðàäèåíò_3175-17" x1="224.65" y1="148.93" x2="246.61" y2="259.23" gradientTransform="matrix(1, 0, 0, 1, 0, 0)" xlink:href="#Áåçûìÿííûé_ãðàäèåíò_3175"/><linearGradient id="Áåçûìÿííûé_ãðàäèåíò_3175-18" x1="287.74" y1="213.85" x2="315.31" y2="312.92" gradientTransform="matrix(1, 0, 0, 1, 0, 0)" xlink:href="#Áåçûìÿííûé_ãðàäèåíò_3175"/><linearGradient id="Áåçûìÿííûé_ãðàäèåíò_3175-19" x1="268.52" y1="219.2" x2="296.09" y2="318.26" gradientTransform="matrix(1, 0, 0, 1, 0, 0)" xlink:href="#Áåçûìÿííûé_ãðàäèåíò_3175"/><linearGradient id="Áåçûìÿííûé_ãðàäèåíò_13-3" x1="201.02" y1="126.89" x2="165.78" y2="250.97" xlink:href="#Áåçûìÿííûé_ãðàäèåíò_13"/><linearGradient id="Áåçûìÿííûé_ãðàäèåíò_3175-20" x1="155.38" y1="187.35" x2="193.17" y2="298.17" gradientTransform="matrix(1, 0, 0, 1, 0, 0)" xlink:href="#Áåçûìÿííûé_ãðàäèåíò_3175"/><linearGradient id="Áåçûìÿííûé_ãðàäèåíò_3175-21" x1="127.96" y1="147.13" x2="176.98" y2="304.92" gradientTransform="matrix(1, 0, 0, 1, 0, 0)" xlink:href="#Áåçûìÿííûé_ãðàäèåíò_3175"/><linearGradient id="Áåçûìÿííûé_ãðàäèåíò_3175-22" x1="179.28" y1="256.72" x2="183.26" y2="264.65" gradientTransform="matrix(1, 0, 0, 1, 0, 0)" xlink:href="#Áåçûìÿííûé_ãðàäèåíò_3175"/><linearGradient id="Áåçûìÿííûé_ãðàäèåíò_3175-23" x1="152.88" y1="261.53" x2="160.36" y2="276.46" gradientTransform="matrix(1, 0, 0, 1, 0, 0)" xlink:href="#Áåçûìÿííûé_ãðàäèåíò_3175"/><linearGradient id="Áåçûìÿííûé_ãðàäèåíò_3175-24" x1="176.86" y1="241" x2="206.92" y2="300.97" gradientTransform="matrix(1, 0, 0, 1, 0, 0)" xlink:href="#Áåçûìÿííûé_ãðàäèåíò_3175"/><linearGradient id="Áåçûìÿííûé_ãðàäèåíò_3175-25" x1="188.69" y1="203.27" x2="205.16" y2="236.12" gradientTransform="matrix(1, 0, 0, 1, 0, 0)" xlink:href="#Áåçûìÿííûé_ãðàäèåíò_3175"/><linearGradient id="Áåçûìÿííûé_ãðàäèåíò_3175-26" x1="128.38" y1="207.17" x2="139.82" y2="229.99" gradientTransform="matrix(1, 0, 0, 1, 0, 0)" xlink:href="#Áåçûìÿííûé_ãðàäèåíò_3175"/><linearGradient id="Áåçûìÿííûé_ãðàäèåíò_3175-27" x1="113.9" y1="202.31" x2="151.26" y2="276.83" gradientTransform="matrix(1, 0, 0, 1, 0, 0)" xlink:href="#Áåçûìÿííûé_ãðàäèåíò_3175"/><linearGradient id="Áåçûìÿííûé_ãðàäèåíò_3175-28" x1="122.99" y1="205.12" x2="128.41" y2="215.93" gradientTransform="matrix(1, 0, 0, 1, 0, 0)" xlink:href="#Áåçûìÿííûé_ãðàäèåíò_3175"/><linearGradient id="Áåçûìÿííûé_ãðàäèåíò_13-4" x1="268.86" y1="-69.96" x2="268.86" y2="346.72" xlink:href="#Áåçûìÿííûé_ãðàäèåíò_13"/><linearGradient id="Áåçûìÿííûé_ãðàäèåíò_3175-29" x1="147.22" y1="167.68" x2="156.41" y2="389.75" gradientTransform="matrix(1, 0, 0, 1, 0, 0)" xlink:href="#Áåçûìÿííûé_ãðàäèåíò_3175"/><linearGradient id="Áåçûìÿííûé_ãðàäèåíò_3175-30" x1="93.27" y1="189.52" x2="74.88" y2="275.65" gradientTransform="matrix(1, 0, 0, 1, 0, 0)" xlink:href="#Áåçûìÿííûé_ãðàäèåíò_3175"/><linearGradient id="Áåçûìÿííûé_ãðàäèåíò_3175-31" x1="158.58" y1="169.08" x2="164.36" y2="283.8" gradientTransform="matrix(1, 0, 0, 1, 0, 0)" xlink:href="#Áåçûìÿííûé_ãðàäèåíò_3175"/><linearGradient id="Áåçûìÿííûé_ãðàäèåíò_3175-32" x1="251.84" y1="225.16" x2="256.39" y2="249.48" gradientTransform="matrix(1, 0, 0, 1, 0, 0)" xlink:href="#Áåçûìÿííûé_ãðàäèåíò_3175"/><linearGradient id="Áåçûìÿííûé_ãðàäèåíò_3175-33" x1="234.73" y1="198.25" x2="241.27" y2="233.22" gradientTransform="matrix(1, 0, 0, 1, 0, 0)" xlink:href="#Áåçûìÿííûé_ãðàäèåíò_3175"/><linearGradient id="Áåçûìÿííûé_ãðàäèåíò_3175-34" x1="225.77" y1="184.44" x2="231.73" y2="216.28" gradientTransform="matrix(1, 0, 0, 1, 0, 0)" xlink:href="#Áåçûìÿííûé_ãðàäèåíò_3175"/><linearGradient id="Áåçûìÿííûé_ãðàäèåíò_3175-35" x1="146.27" y1="138.04" x2="141.16" y2="247.66" gradientTransform="matrix(1, 0, 0, 1, 0, 0)" xlink:href="#Áåçûìÿííûé_ãðàäèåíò_3175"/><linearGradient id="Áåçûìÿííûé_ãðàäèåíò_3175-36" x1="164.93" y1="184.63" x2="155.4" y2="284.38" gradientTransform="matrix(1, 0, 0, 1, 0, 0)" xlink:href="#Áåçûìÿííûé_ãðàäèåíò_3175"/><linearGradient id="Áåçûìÿííûé_ãðàäèåíò_3175-37" x1="278.21" y1="252.74" x2="284.34" y2="308.15" gradientTransform="matrix(1, 0, 0, 1, 0, 0)" xlink:href="#Áåçûìÿííûé_ãðàäèåíò_3175"/><linearGradient id="Áåçûìÿííûé_ãðàäèåíò_3175-38" x1="308.93" y1="265.39" x2="311.82" y2="284.32" gradientTransform="matrix(1, 0, 0, 1, 0, 0)" xlink:href="#Áåçûìÿííûé_ãðàäèåíò_3175"/><linearGradient id="Áåçûìÿííûé_ãðàäèåíò_3175-39" x1="294.74" y1="228.32" x2="305.04" y2="295.83" gradientTransform="matrix(1, 0, 0, 1, 0, 0)" xlink:href="#Áåçûìÿííûé_ãðàäèåíò_3175"/><linearGradient id="Áåçûìÿííûé_ãðàäèåíò_3175-40" x1="173.2" y1="108.9" x2="224.26" y2="243.71" gradientTransform="matrix(1, 0, 0, 1, 0, 0)" xlink:href="#Áåçûìÿííûé_ãðàäèåíò_3175"/><linearGradient id="Áåçûìÿííûé_ãðàäèåíò_3175-41" x1="164.61" y1="62.58" x2="214.66" y2="276.54" gradientTransform="matrix(1, 0, 0, 1, 0, 0)" xlink:href="#Áåçûìÿííûé_ãðàäèåíò_3175"/><linearGradient id="Áåçûìÿííûé_ãðàäèåíò_3175-42" x1="217.34" y1="191.89" x2="220.72" y2="359.45" gradientTransform="matrix(1, 0, 0, 1, 0, 0)" xlink:href="#Áåçûìÿííûé_ãðàäèåíò_3175"/><linearGradient id="Áåçûìÿííûé_ãðàäèåíò_3175-43" x1="267.02" y1="191.24" x2="270.38" y2="357.94" gradientTransform="matrix(1, 0, 0, 1, 0, 0)" xlink:href="#Áåçûìÿííûé_ãðàäèåíò_3175"/><linearGradient id="Áåçûìÿííûé_ãðàäèåíò_3175-44" x1="180.13" y1="193.3" x2="183.48" y2="359.45" gradientTransform="matrix(1, 0, 0, 1, 0, 0)" xlink:href="#Áåçûìÿííûé_ãðàäèåíò_3175"/><linearGradient id="Áåçûìÿííûé_ãðàäèåíò_13-5" x1="234.53" y1="221.21" x2="238.61" y2="264.87" xlink:href="#Áåçûìÿííûé_ãðàäèåíò_13"/><linearGradient id="Áåçûìÿííûé_ãðàäèåíò_3175-45" x1="239.78" y1="237.99" x2="246.71" y2="300.81" gradientTransform="matrix(1, 0, 0, 1, 0, 0)" xlink:href="#Áåçûìÿííûé_ãðàäèåíò_3175"/><linearGradient id="Áåçûìÿííûé_ãðàäèåíò_13-6" x1="211.66" y1="239.22" x2="211.27" y2="273.97" xlink:href="#Áåçûìÿííûé_ãðàäèåíò_13"/><linearGradient id="Áåçûìÿííûé_ãðàäèåíò_3175-46" x1="233.88" y1="260.27" x2="232.63" y2="297.36" gradientTransform="matrix(1, 0, 0, 1, 0, 0)" xlink:href="#Áåçûìÿííûé_ãðàäèåíò_3175"/><linearGradient id="Áåçûìÿííûé_ãðàäèåíò_3175-47" x1="211.87" y1="255.88" x2="210.57" y2="294.41" gradientTransform="matrix(1, 0, 0, 1, 0, 0)" xlink:href="#Áåçûìÿííûé_ãðàäèåíò_3175"/><linearGradient id="Áåçûìÿííûé_ãðàäèåíò_3175-48" x1="193.59" y1="254.23" x2="192.33" y2="291.51" gradientTransform="matrix(1, 0, 0, 1, 0, 0)" xlink:href="#Áåçûìÿííûé_ãðàäèåíò_3175"/><linearGradient id="Áåçûìÿííûé_ãðàäèåíò_3175-49" x1="218.13" y1="255.25" x2="216.67" y2="298.49" gradientTransform="matrix(1, 0, 0, 1, 0, 0)" xlink:href="#Áåçûìÿííûé_ãðàäèåíò_3175"/><linearGradient id="Áåçûìÿííûé_ãðàäèåíò_13-7" x1="93.74" y1="225.69" x2="95.53" y2="273.95" xlink:href="#Áåçûìÿííûé_ãðàäèåíò_13"/><linearGradient id="Áåçûìÿííûé_ãðàäèåíò_3175-50" x1="97.99" y1="250.35" x2="98.5" y2="291.2" gradientTransform="matrix(1, 0, 0, 1, 0, 0)" xlink:href="#Áåçûìÿííûé_ãðàäèåíò_3175"/><linearGradient id="Áåçûìÿííûé_ãðàäèåíò_13-8" x1="81.42" y1="253.43" x2="83.77" y2="283.44" xlink:href="#Áåçûìÿííûé_ãðàäèåíò_13"/><linearGradient id="Áåçûìÿííûé_ãðàäèåíò_3175-51" x1="83.89" y1="265.86" x2="87.23" y2="296.17" gradientTransform="matrix(1, 0, 0, 1, 0, 0)" xlink:href="#Áåçûìÿííûé_ãðàäèåíò_3175"/><linearGradient id="Áåçûìÿííûé_ãðàäèåíò_13-9" x1="28.48" y1="57.69" x2="28.48" y2="328.73" xlink:href="#Áåçûìÿííûé_ãðàäèåíò_13"/><linearGradient id="Áåçûìÿííûé_ãðàäèåíò_3175-52" x1="66.91" y1="270.85" x2="62.06" y2="313.62" gradientTransform="matrix(1, 0, 0, 1, 0, 0)" xlink:href="#Áåçûìÿííûé_ãðàäèåíò_3175"/><linearGradient id="Áåçûìÿííûé_ãðàäèåíò_3175-53" x1="194.03" y1="50.33" x2="204.24" y2="252.55" gradientTransform="matrix(1, 0, 0, 1, 0, 0)" xlink:href="#Áåçûìÿííûé_ãðàäèåíò_3175"/><linearGradient id="Áåçûìÿííûé_ãðàäèåíò_3175-54" x1="219.32" y1="16.1" x2="137.11" y2="237.2" gradientTransform="matrix(1, 0, 0, 1, 0, 0)" xlink:href="#Áåçûìÿííûé_ãðàäèåíò_3175"/><linearGradient id="Áåçûìÿííûé_ãðàäèåíò_414" x1="75.73" y1="263.13" x2="72.67" y2="353.68" gradientUnits="userSpaceOnUse"><stop offset="0" stop-color="#563f62"/><stop offset="1" stop-color="#161d2e"/></linearGradient><linearGradient id="Áåçûìÿííûé_ãðàäèåíò_414-2" x1="37.4" y1="261.83" x2="34.34" y2="352.39" xlink:href="#Áåçûìÿííûé_ãðàäèåíò_414"/></defs><g id="Layer_2" data-name="Layer 2"><g id="layer_1-2" data-name="layer 1"><polygon class="cls-1" points="122.73 173.2 121.48 143.78 120.59 118.09 123.85 97.81 131.33 106.77 140.14 118.52 143.76 115.71 154.02 132.87 147.2 154.74 122.73 173.2 122.73 173.2"/><polygon class="cls-2" points="250.53 201.59 257.67 229.46 264.52 252.75 280.98 265.31 305.48 274.48 317.74 277.56 322.72 264.19 311.7 243.07 306.72 229.66 301.65 216.03 286 192.99 273.85 160.28 262.76 143.73 249.6 136.26 249.43 136.16 246.85 150 247.71 180.96 250.53 201.59"/><polygon class="cls-3" points="252.06 147.13 253.53 151.67 255.38 157.35 259.83 168.34 260.28 169.44 265.85 183.19 273.98 197.69 280.2 197.81 283.56 197.5 285.67 198.4 275.88 199.5 277.63 206.45 278.43 209.63 278.69 210.63 279.44 213.63 281.19 217.31 283.3 221.73 283.96 223.13 289.9 232.94 301.5 229.35 305.74 232.23 306.72 229.66 304.01 222.38 301.65 216.03 300.51 214.34 298.05 210.73 286 192.99 279.97 176.74 279.39 175.22 274.9 163.12 273.85 160.28 270.35 155.06 262.76 143.73 249.6 136.26 248.98 140.91 251.64 145.83 252.06 147.13"/><polygon class="cls-4" points="278.43 209.63 281.21 210.98 278.69 210.63 279.44 213.63 281.19 217.31 282.16 217.5 292.94 221.71 304.01 222.38 301.65 216.03 298.05 210.73 290.87 208.61 277.63 206.45 278.43 209.63"/><polygon class="cls-5" points="260.28 169.44 279.97 176.74 279.39 175.22 259.83 168.34 260.28 169.44"/><polygon class="cls-6" points="267.16 159.42 274.9 163.12 273.85 160.28 270.35 155.06 252.06 147.13 253.53 151.67 267.16 159.42"/><polygon class="cls-7" points="168.08 118.04 182.88 160.13 213.62 205.88 255.07 202.47 238.96 161.85 206.45 79.9 179.88 32.74 168.26 11.23 152.47 0.2 152.18 0 151.41 25.02 158.56 90.64 168.08 118.04"/><polygon class="cls-8" points="257.61 242.28 275.07 244.09 279 244.23 288.23 244.57 302.05 243.12 296.61 233.29 285.4 228.52 278.82 216.76 268.57 203.76 250.08 176.17 240.37 177.66 239.28 182.16 237.16 190.83 239.48 217.59 235.56 238.47 257.61 242.28"/><polygon class="cls-9" points="243.87 185 247.79 187.42 250.54 196.72 246.58 198.99 248.28 203.15 249.45 206.03 249.97 207.33 253.63 216.33 255.27 220.35 264.29 224.06 270.05 226.43 270.57 226.65 268.92 226.57 261.25 226.22 262.76 227.29 273.13 234.73 277.56 243.79 279 244.23 288.23 244.56 302.05 243.12 296.61 233.28 285.4 228.52 282.54 223.41 280.94 220.56 278.82 216.76 275.05 211.97 268.57 203.76 266.9 201.27 257.81 187.71 250.24 176.41 250.24 176.4 250.08 176.17 249.73 176.22 240.37 177.66 239.28 182.15 243.87 184.99 243.87 185"/><polygon class="cls-10" points="262.76 227.29 268.92 226.57 261.25 226.22 262.76 227.29"/><polygon class="cls-11" points="264.29 224.06 270.05 226.43 272.78 226.12 282.54 223.41 280.94 220.56 272.89 222.15 264.29 224.06"/><polygon class="cls-12" points="249.45 206.03 251.66 206.79 249.97 207.33 253.63 216.33 267.91 212.63 275.05 211.97 268.57 203.76 266.9 201.27 260.72 201.9 248.28 203.15 249.45 206.03"/><polygon class="cls-13" points="243.87 185 253.22 188.19 257.35 189.27 257.81 187.71 250.24 176.41 250.24 176.4 249.73 176.22 240.37 177.66 239.28 182.15 243.87 184.99 243.87 185"/><polygon class="cls-14" points="149.9 143.5 160.88 173.54 171.04 198.55 190.64 210.63 218.76 218.06 232.66 220.12 236.69 204.78 222.17 182.63 215.17 168.34 208.06 153.82 188.19 130.06 171.13 95.21 157.03 78.13 141.65 71.32 141.45 71.23 140.13 86.83 144.5 120.98 149.9 143.5"/><path class="cls-15" d="M40.22,317.87c77,41,164,26,246,25,22,0,47-9,59-30,8-13.71,15.52-27,22.88-40.31l-15,1.31L332,272.51,325,262l-.16-.18-22.31-25.35L276.27,230l-.09,0-.68-.17-12.77,7.15-.43-.65L234.65,194l-24.9-16.77-.13-.09-9.7,12.26-1.36-1.37-38.21-51.48-17.87-9.19-.52,1-10.72,20.44-13.63,35.33L107.5,197.36l-14.3,37L77.37,251.23l-8.68,20.93-1.47-.88-10-6-19.92,7.66-12.7,4.31L.71,279.63,0,279.28C6.5,296.48,24.31,309.57,40.22,317.87Z"/><path class="cls-16" d="M353.11,273.87,332,272.51,325,262l-.16-.18-22.31-25.35L276.27,230l-.09,0-.68-.17-12.77,7.15-.43-.65L234.65,194l-24.9-16.77-.13-.09-9.7,12.26-1.36-1.37-38.21-51.48-17.87-9.19-.52,1-10.72,20.44-13.63,35.33L107.5,197.36l-14.3,37L77.37,251.23l-8.68,20.93-1.47-.88a6.63,6.63,0,0,0,1.45,2.7c5.73,5.43,23.21,4.45,30.31,5s13.35-.46,20.28,1.11a95.9,95.9,0,0,0,20.36,2.21c16.51.12,33.73,1.38,50.15-.22,8.4-.82,16.64-3.85,25.08-3.77a180.72,180.72,0,0,1,18.79,1.64c18.36,2.12,37,4.52,55.54,4.91,8.66.19,16.85-3.12,25.39-4a81.42,81.42,0,0,0,11.28-1.8c8.6-2.08,17-1.84,25.86-2.72a108,108,0,0,1,14.38-.2c.68-1.2,1.34-2.41,2-3.61Z"/><polygon class="cls-17" points="60.51 284.1 70.56 285.1 83.22 264.12 92.89 243.44 97.8 230.98 88.95 216.68 81.46 210.55 76.35 215.66 70.07 228.26 65.8 237.78 56.27 251.06 45.04 259.74 31.75 276.93 42.63 282.72 60.51 284.1"/><polygon class="cls-18" points="150.65 143.09 151.79 152.2 152.01 153.95 153.78 157.47 158.15 166.19 163.09 176.04 165.54 180.93 176.6 189.48 180.52 192.51 186.09 197.25 187.33 198.3 195.84 201.36 208.43 204.42 208.43 199.66 199.88 191.35 198.56 188.07 190.76 177.57 182 165.77 163.16 140.38 160.35 136.59 142.48 127.4 141.96 128.4 144.71 133.04 150.65 143.09"/><polygon class="cls-19" points="217.48 194.76 218.28 196.11 224.37 206.37 228.86 213.95 233.61 219.71 244.86 233.35 246.65 235.56 251.05 241.01 256.36 247.58 265.62 259.23 263.51 240.95 262.3 236.28 260.54 233.6 257.18 228.46 250.28 217.92 242.21 205.6 240.07 202.32 235.15 194.81 234.65 194.04 209.75 177.27 216.2 191.86 217.48 194.76"/><polygon class="cls-20" points="275.45 250.96 275.98 252.02 276.18 252.42 280.59 259.45 281.26 260.34 288.09 269.44 290.57 271.36 296.74 276.11 304.43 282.04 327.24 282.04 329.97 275.19 329.4 273.31 327.58 267.26 327.56 267.23 325.48 263.01 324.87 261.77 310.57 245.53 302.56 236.42 276.27 229.97 276.18 229.95 269.71 239.48 271.55 243.16 275.45 250.96"/><polygon class="cls-21" points="272.38 276.28 278.56 285.44 283.67 285.78 300.35 285.44 294.22 279.31 291.24 276.58 291.23 276.58 286.07 271.86 285.94 271.74 279.24 268.76 270.73 266.72 270.08 272.6 270.05 272.84 272.37 276.28 272.38 276.28"/><polygon class="cls-22" points="151.92 284.08 171.11 288.79 172.69 289.19 189.34 288.51 206.39 286.46 239.75 282.04 236.01 274.89 225.12 255.71 220.15 234.35 206.74 207.14 198.56 205.1 186.37 201.28 184.87 200.81 176.43 192.84 174.19 190.95 160.6 179.48 150.9 189.19 142.48 189.44 133.79 200.16 131.34 205.56 131.24 205.78 121.21 208.76 116.38 215 107.67 226.21 99.5 232 99.45 232.08 91.67 246.63 89.71 248.94 80.61 259.65 75.33 277.95 90.11 281.09 151.92 284.08"/><polygon class="cls-23" points="144.77 203.74 146.15 205.08 146.98 205.89 154.22 212.93 155.2 213.24 168.01 217.27 172.32 220.38 178.99 225.19 180.08 218.12 181.03 211.91 177.65 201.56 174.19 190.95 173.53 190.39 160.6 179.48 158.05 189.18 142.48 189.44 140.94 196.59 142.69 199.85 144.77 203.74"/><polygon class="cls-24" points="119.5 261.44 112.09 262.46 110.05 268.59 113.07 269.34 131.75 273.95 139.19 276.22 139.62 276.35 152.7 280.34 156.01 281.35 162.94 285.62 168.89 287.93 171.11 288.79 172.69 289.18 189.34 288.51 206.39 286.46 239.75 282.04 236.01 274.89 233.58 270.61 228.31 261.33 225.12 255.71 224.88 254.68 222.53 244.58 220.15 234.35 214.2 222.28 207.93 209.55 206.74 207.14 198.56 205.1 186.37 201.28 186.13 201.7 186.7 208.33 187.79 215.88 187.92 216.76 186.84 225.15 187.67 233.35 188.56 233.99 196.94 240.07 194.56 246.63 193.53 254.83 193.01 259.01 192.77 260.93 191.75 262.68 184.6 274.97 177.71 270.63 177.08 269.32 175.93 266.94 175.16 264.81 174.04 261.72 173.11 259.14 177.83 260.38 179.19 260.74 184.23 261.87 184.6 261.95 184.54 261.76 183.42 258.41 182.75 256.4 181.28 248.93 187.67 255.06 182.56 242.55 179.44 238.16 172.22 227.99 172.2 227.96 170.05 224.93 165.23 222.44 154.73 217.01 151.51 215.26 145.79 212.16 140.29 209.64 137.43 208.34 131.34 205.55 131.24 205.78 128.46 206.61 121.21 208.76 119.63 210.8 116.38 214.99 115.82 216.4 114.51 219.75 117.93 224.38 120.99 228.52 122.84 231.85 122.97 231.97 126.65 235.17 132.77 240.5 138.4 246.1 143.24 252.5 130.21 245.6 118.75 238.03 116.69 236.67 116 236.49 106.03 233.83 99.45 232.08 92.96 244.21 91.67 246.63 89.71 248.94 94.96 253.51 119.5 261.44"/><polygon class="cls-25" points="179.19 260.74 184.23 261.87 184.54 261.76 183.42 258.41 177.83 260.38 179.19 260.74"/><polygon class="cls-26" points="138.39 274.32 139.19 276.22 139.29 276.46 139.62 276.35 175.16 264.81 174.04 261.72 138.39 274.32"/><polygon class="cls-27" points="177.08 269.32 152.7 280.34 156.01 281.35 162.94 285.62 168.89 287.93 173.33 286.36 197.26 280.38 233.58 270.61 228.31 261.33 203.08 265.72 224.88 254.68 222.53 244.58 193.53 254.83 193.01 259.01 210.51 253.33 192.04 262.55 191.75 262.68 184.6 274.97 177.71 270.63 177.08 269.32"/><polygon class="cls-28" points="187.67 233.35 188.56 233.99 214.2 222.28 207.93 209.55 207.34 210.2 187.79 215.88 187.92 216.76 186.84 225.15 187.67 233.35"/><polygon class="cls-29" points="117.93 224.38 120.99 228.52 122.84 231.85 122.97 231.97 133.31 225.27 151.51 215.26 145.79 212.16 140.29 209.64 127.41 216.86 117.93 224.38"/><polygon class="cls-30" points="119.5 261.44 112.09 262.46 110.05 268.59 113.07 269.34 114.23 268.77 121.66 270.55 143.98 254.55 155.74 248.99 179.44 238.16 172.22 227.99 172.16 227.97 172.2 227.96 170.05 224.93 165.23 222.44 147.83 227.49 126.65 235.17 132.77 240.5 138.4 246.1 143.24 252.5 130.21 245.6 118.75 238.03 107.09 242.26 116 236.49 106.03 233.83 92.96 244.21 91.67 246.63 89.71 248.94 94.96 253.51 119.5 261.44"/><polygon class="cls-31" points="131.34 205.55 131.24 205.78 128.46 206.61 119.63 210.8 116.38 214.99 115.82 216.4 137.43 208.34 131.34 205.55"/><polygon class="cls-32" points="270.05 284.94 278.56 285.44 270.05 272.84 270.73 266.72 263.24 273.19 260.35 277.62 259.16 281.35 265.11 284.25 270.05 284.94"/><polygon class="cls-33" points="155.75 173.61 149.89 170.82 138.65 160.85 138.63 160.04 138.53 155.26 138.39 148.34 147.07 152.17 148.93 156.77 151.98 164.3 155.75 173.61"/><polygon class="cls-34" points="94.05 227.57 88.06 217.8 81.46 212.59 78.05 219.06 82.14 237.78 94.05 227.57"/><polygon class="cls-35" points="146.15 205.08 146.77 204.85 151.09 203.59 146.98 205.89 154.22 212.93 155.2 213.24 160.31 210.43 177.65 201.56 174.19 190.95 173.53 190.39 144.24 199.11 142.69 199.85 144.77 203.74 146.15 205.08"/><polygon class="cls-36" points="246.65 235.56 251.05 241.01 254.69 238.64 260.54 233.6 257.18 228.46 250.27 232.97 246.65 235.56"/><polygon class="cls-37" points="229.52 206.8 224.37 206.37 228.86 213.95 233.61 219.71 250.13 217.91 250.28 217.92 242.21 205.6 239.65 206.39 229.52 206.8"/><polygon class="cls-38" points="218.28 196.11 231.31 201.06 240.07 202.32 235.15 194.81 216.2 191.86 217.48 194.76 218.28 196.11"/><polygon class="cls-39" points="151.98 164.3 141.85 161.2 138.63 160.04 138.53 155.26 148.93 156.77 151.98 164.3"/><polygon class="cls-40" points="190.76 177.57 159.78 166.69 158.15 166.19 153.78 157.47 161.05 158.53 168.97 160.77 151.79 152.2 150.65 143.09 144.71 133.04 152.09 135.38 163.16 140.38 190.76 177.57"/><polygon class="cls-41" points="272.38 276.28 275.04 276.5 276.95 277.81 291.23 276.58 286.07 271.86 284.62 272.02 270.08 272.6 270.05 272.84 272.37 276.28 272.38 276.28"/><polygon class="cls-42" points="296.74 276.11 329.4 273.31 327.58 267.26 327.56 267.23 290.57 271.36 296.74 276.11"/><polygon class="cls-43" points="279.11 251.31 275.98 252.02 276.18 252.42 280.59 259.45 281.26 260.34 325.48 263.01 324.87 261.77 310.57 245.53 301.4 244.39 272.48 243.01 271.55 243.16 275.45 250.96 279.11 251.31"/><polygon class="cls-44" points="215.17 168.34 214.37 171.29 209.36 168.57 196.93 173.83 189.27 163.63 188.38 162.16 185.56 157.5 183.22 153.62 182.05 150.38 181.66 149.31 180.42 145.88 177.71 138.38 188.43 136.08 185.99 135.32 182.31 136.03 175.41 136.59 164.82 121.45 157.13 106.85 156.51 105.68 150.37 94.02 147.7 87.93 145.57 83.08 144.96 81.68 141.48 76.53 141.65 71.32 157.03 78.13 166.68 89.82 171.13 95.21 172.61 98.24 178.92 111.13 179.72 112.75 188.19 130.06 203.49 148.35 206.61 152.08 208.06 153.82 211.37 160.58 215.17 168.34"/><path class="cls-45" d="M172.61,98.24l-9-3.24L147.7,87.93l-2.13-4.85,21.11,6.74,4.45,5.39Zm6.31,12.89-22.41-5.45.62,1.17,22.59,5.9Zm29.14,42.69-4.57-5.47-8.18-1.55-14.89-.92,1.24,3.43,3.22,1.18-2.83-.11,1.17,3.24,2.34,3.88,1.09.1,12.4,3.47,12.32-.49Z"/><path class="cls-46" d="M349.54,292.88l-31.66-.72,10.63-4.66,13.43-6.45L330.14,280,321,282.13l-19.05.62-13.12,1.53-25.53-1.08-29-.72-51.57.7-59.94-.33-12.16-1.43-9.19,2-19.66,2L110.53,298l-2,2.48,9.38,1.18,27.9.54L165,304l-24.34,2.5,30.13,1.43L202,306.14l17.71,1.45-11,1.05-29.17,1.8,32.05,1.36,27.69.07,36.66,1.47,57.81,0L346,311.48q5.55-9.57,10.85-18.93Z"/><polygon class="cls-47" points="269.93 324.4 311.05 322.37 333.2 319.4 323.84 317.01 298.31 317.97 277.88 316.77 227.16 315.1 206.05 321.79 237.21 324.15 269.93 324.4"/><polygon class="cls-48" points="196.09 317.61 214.48 314.2 201.2 313.67 191.04 313.12 177.2 311.7 150.65 314.02 176.44 314.92 196.09 317.61"/><polygon class="cls-49" points="219.02 282.25 235.41 286.44 244.8 287.56 261.35 284.08 265.61 281.71 265.17 276.48 257.16 272.37 245.08 263.85 232.16 253.15 228.35 247.66 221.76 249.19 215.95 251.4 213.25 257.09 213.84 272.28 219.02 282.25"/><polygon class="cls-50" points="225.03 264.65 229.52 268.04 237.78 279.84 240.78 279.56 238.62 269.77 242.01 277.62 243.88 282.59 250.07 281.89 250.45 278.58 253.63 283.57 264.01 280.04 265.1 276.44 262.44 272.31 254.44 260.57 248.27 259.67 241.32 254.75 238.15 251.27 235.7 251.25 232.07 248.92 228.32 247.58 224.52 250.14 221.57 252.49 223.85 260.93 221.35 261.96 225.03 264.65"/><polygon class="cls-51" points="186.1 289.14 194.36 290.44 198.14 289.23 202.97 287.61 211.18 289.71 215.51 288.77 219.17 287.22 223.19 288.33 230.59 289.4 239.97 288 239.79 287.68 237.93 284.41 230.69 280.98 230.56 280.92 230.44 280.75 227.75 276.73 222.62 274 219.28 272.72 208.52 268.57 205.01 270.43 204.52 270.69 204.49 270.73 204.45 270.8 203.75 271.99 201.62 275.62 197.43 272.88 196.87 272.67 191.88 270.8 186.18 271.59 185.93 271.63 184.1 277.75 182.28 285.5 183.24 286.41 186.1 289.14"/><polygon class="cls-52" points="231.36 287.95 235.21 288.04 238.43 287.9 239.79 287.68 237.94 284.41 230.69 280.98 228.96 281.84 226.73 282.15 226.28 282.96 229.45 285.27 231.36 287.95"/><polygon class="cls-53" points="207.73 285.05 211 287.4 216.23 286.29 219.06 284.99 217.7 282.38 212.82 276.97 206.07 275.1 202.99 276.78 203.92 283.27 207.73 285.05"/><polygon class="cls-54" points="186.57 275.32 187.29 277.43 188.64 278.79 190.24 284.41 193.99 286.03 198.09 284.52 199.57 278.96 198.08 274.36 196.86 272.67 191.88 270.8 186.18 271.59 186.22 273.62 186.57 275.32"/><polygon class="cls-55" points="209.92 273.57 214.5 275.52 217.8 276.94 224.41 281.6 228.44 281.48 230.44 280.75 227.75 276.73 222.62 274 219.28 272.72 208.52 268.57 204.43 270.7 204.49 270.73 209.92 273.57"/><polygon class="cls-56" points="89.43 282.81 99.22 283.57 101.44 283.62 106.64 283.73 114.53 282.98 111.91 278.38 105.8 276.2 102.63 270.71 97.45 264.65 88.3 251.77 82.74 252.52 81.91 254.64 80.3 258.73 80.34 271.3 77.14 281.13 89.43 282.81"/><polygon class="cls-57" points="84.37 255.95 86.47 257.07 87.58 261.43 85.24 262.51 86 264.46 86.53 265.81 86.77 266.42 88.41 270.63 89.14 272.51 94.07 274.21 97.22 275.3 97.5 275.39 96.57 275.37 92.25 275.24 93.05 275.74 98.57 279.18 100.64 283.42 101.44 283.62 106.64 283.73 114.53 282.98 111.91 278.38 105.8 276.2 104.42 273.81 103.66 272.48 102.64 270.7 100.73 268.47 97.45 264.65 96.63 263.49 92.13 257.15 88.38 251.88 88.38 251.88 88.3 251.77 88.1 251.79 82.74 252.52 81.91 254.63 84.37 255.94 84.37 255.95"/><polygon class="cls-58" points="73.88 287.21 81.78 289.23 86.31 289.77 94.3 288.09 96.35 286.95 96.14 284.43 92.28 282.44 86.44 278.33 80.21 273.17 78.38 270.52 75.2 271.26 72.4 272.33 71.09 275.07 71.37 282.4 73.88 287.21"/><polygon class="cls-59" points="76.78 278.72 78.94 280.36 82.92 286.05 84.37 285.91 83.33 281.19 84.96 284.97 85.87 287.38 88.85 287.04 89.04 285.44 90.57 287.85 95.58 286.15 96.1 284.41 94.82 282.42 90.96 276.75 87.99 276.32 84.63 273.94 83.1 272.26 81.92 272.25 80.17 271.13 78.36 270.49 76.53 271.72 75.11 272.86 76.21 276.93 75 277.42 76.78 278.72"/><path class="cls-60" d="M9.66,289.83l20.48-.5-4.51,5.55,30.45-.3-1.77-11.34,1.81-7.74-7.77-1.31-1.06-1-2.78-2.53-3.21-6-3.06-2.51-.15-.12-4.66,3.95-10,7.31-.11-.11-2.9-2.92,0,0-9.68,7.14-7,4.24-2.86-.42a48.29,48.29,0,0,0,3.66,6.78l1.27.39Z"/><polygon class="cls-61" points="55.69 294.69 61.74 293.8 68.62 292.18 82.14 289.38 75.7 286.97 63.59 279.99 56.8 274.8 52.23 276.48 52.32 283.85 61 284.71 50.98 285.51 47.11 292.59 53.99 293.39 55.69 294.69"/><polygon class="cls-62" points="238.96 161.85 229.54 176.17 224.94 169.53 212.54 145.51 211.61 143.72 211.47 143.44 202.21 126.18 198.9 120 194.8 114.88 194.7 114.76 184.7 102.27 183.99 100.65 177.45 85.78 169.33 69.59 168.71 68.34 168.37 67.67 167.27 58.25 167.27 58.24 166.15 48.68 165.71 44.93 182.56 50.04 161.11 38.81 153.05 17.27 153.02 16.29 152.78 9.39 152.47 0.2 168.26 11.23 177.69 28.69 179.88 32.74 182.7 37.74 182.7 37.75 195.8 60.99 204.01 75.58 206.45 79.9 219.7 113.3 227.84 133.83 235.78 153.84 236.48 155.61 238.96 161.85"/><path class="cls-63" d="M182.7,37.74,161.78,22.39l-3.73-2.77-5-3.33-.24-6.9,24.91,19.3,2.19,4.05ZM195.8,61,166.15,48.68l1.12,9.56h0l32.3,13.48-7.69-.87-23.17-2.52.62,1.25L193,74.09l11,1.49Zm23.9,52.31-6-1.81L184,100.65l.71,1.62,10,12.49.39.16-.29,0,4.1,5.12,3.31,6.18,25.63,7.65Zm16.08,40.54-24.17-10.12.93,1.79,23.94,10.1Z"/><path class="cls-64" d="M91.12,327.59,85.56,320l-19-6.36-.33-.12-.35-.4L58,304,44.5,298.74l-8.65-2.21L7.94,289.42l-1.73,1.2c8.48,11.7,21.81,20.88,34,27.25a217.54,217.54,0,0,0,35.24,14.89l16.21-4.43Z"/><polygon class="cls-65" points="70.31 330.75 79.89 329.84 87.82 328.53 91.13 327.59 85.57 320.03 66.58 313.66 62.56 316.3 57.11 317.73 56.23 319.87 64.78 324.67 70.31 330.75"/><path class="cls-66" d="M33.42,307.45,51.19,317l10-1.48,4.74-2.41L58,304,44.5,298.74l-8.65-2.21L7.94,289.42,6.2,290.61a72,72,0,0,0,11.37,12.16l7.24,2.14Z"/><path class="cls-67" d="M66.65,313.2l-.1-.1-.12-.05Z"/><path class="cls-67" d="M57.68,304.29a.27.27,0,0,1,.07.08l.12.05Z"/></g></g></svg>